<svg xmlns="http://www.w3.org/2000/svg" xmlns:xlink="http://www.w3.org/1999/xlink" viewBox="0 0 1015.05 356.49"><defs><style>.cls-1{fill:#231f20;}.cls-2{fill:url(#linear-gradient);}.cls-3{fill:url(#linear-gradient-2);}.cls-4{fill:url(#linear-gradient-3);}</style><linearGradient id="linear-gradient" x1="124.63" y1="161.49" x2="320.82" y2="161.49" gradientUnits="userSpaceOnUse"><stop offset="0" stop-color="#22689b"/><stop offset="1"/></linearGradient><linearGradient id="linear-gradient-2" x1="80.8" y1="167.67" x2="230.38" y2="167.67" xlink:href="#linear-gradient"/><linearGradient id="linear-gradient-3" x1="106.97" y1="220.01" x2="295.01" y2="220.01" xlink:href="#linear-gradient"/></defs><title>Artboard 2-svg</title><g id="Layer_1" data-name="Layer 1"><path class="cls-1" d="M485.05,125.32h-52c-4.76,0-9.92-.14-12.77-.14-.68,9.1-1.22,18.33-1.76,27.56,4.34.55,9.64.95,14.39,1.23l2.44-13a2.86,2.86,0,0,1,2.58-2.71,54.46,54.46,0,0,1,9.37-.68v63.54c0,.27-.13.54-.41.54l-9.23.41c0,3.8-.13,7.74-.13,11.67,6.78,0,14.79-.13,21.31-.13,7.2,0,15.34.13,21,.13.14-3.93.14-8,.14-11.67l-9.77-.55.4-63.81c6,0,7.61.28,9.37.68s2.31,1.09,2.58,2.58l2.17,13c4.89-.41,10.05-.82,14.53-1.36-.27-9.1-.82-18.33-1.36-27.43C495.24,125.18,490.48,125.18,485.05,125.32Z"/><path class="cls-1" d="M532.3,170.26l-.81-.14c-.41-5.84-1-11.54-1.36-17.38,0-.27-.14-.27-.27-.27-.68,0-20.91,2.85-27,3.53-.14,3.53-.27,7.47-.27,11.14l8,.4v34.22c0,.27-.14.4-.54.54l-6.39.27c-.13,3.39-.13,7.47-.13,11.13,5.7,0,13.3-.13,19.28-.13h20.5c.27-3.67.27-7.47.27-11.14l-11.13-.4v-7.47c.13-3.8.4-8.15,2-11.4,2.58-4.89,4.62-7.34,7.06-9.37a5.62,5.62,0,0,1,3.94-1.22,41.57,41.57,0,0,1,8.55,1.35c2.58-2.3,6.38-13.3,6.38-19.68a31.27,31.27,0,0,0-9.77-1.77C543.84,152.47,540.72,154.24,532.3,170.26Z"/><path class="cls-1" d="M595.57,152.88c0-.27,0-.41-.27-.41-1.09,0-23.08,3.13-30.41,3.67-.14,3.66-.28,7.87-.28,11.54l8.69.41v33.39a.68.68,0,0,1-.54.68l-7.2.27c-.13,3.53-.13,7.61-.13,11.27,5.57,0,12.76-.13,18.46-.13h18.74V202.3l-7.47-.27C595.16,188.45,595.43,167.54,595.57,152.88Z"/><path class="cls-1" d="M582.4,144.46c6.79,0,12.76-4.89,12.76-12.22,0-5.7-4.21-11-12.08-11-7.47,0-12.49,5.56-12.49,11.26A12.11,12.11,0,0,0,582.4,144.46Z"/><path class="cls-1" d="M656,152.47c-5.43,0-7.33.41-20.36,6.38l-.54-.13c.13-13.58.54-29.06.54-39.78,0-.27-.14-.41-.27-.41-1.5,0-23,2.72-30.82,3.4-.14,3.53-.27,7.73-.27,11.4l9,.41c0,20.23.13,44.12,0,64.21,0,4.89-.27,13-.68,16.57,4.75.68,8.69,1.36,12.49,1.9l4.75-5.16a33.29,33.29,0,0,0,14.39,3.67c7.06,0,14.26-1.77,17.92-4.49a35.81,35.81,0,0,0,11-13.57,52,52,0,0,0,3.53-19.42C676.62,165,667.12,152.47,656,152.47Zm-5.56,47a7.9,7.9,0,0,1-7.06,3.93c-3.12,0-8.28-1.9-8.28-5.43,0-8.41.13-18.73.27-26.74,3.66-2.58,7.06-3.8,10.18-3.8a6.75,6.75,0,0,1,5.7,3.8c1.36,2,2.31,6.11,2.31,12.76C653.54,191.3,652.32,196.46,650.42,199.45Z"/><path class="cls-1" d="M744.91,180.58c0-8.69-2.58-15.75-6.92-20.91-3.67-4.21-10-7.2-18.47-7.2-20.36,0-34.21,15.21-34.21,34.49s13.71,28,31.77,28c6.52,0,18.46-2.72,26.47-6.39-.54-3.39-1.63-7.73-2.58-11.26-4.48,1.62-13.3,3.8-19.14,3.8-3.53,0-7.06-.27-10.18-3.26A12.76,12.76,0,0,1,708,189c12.09,0,26.07,0,29.6-.4C738.66,188.45,744.77,182.61,744.91,180.58Zm-21.59-2.72c-3.93.14-10.59.27-15.34.27-.13-5.43.82-8,2.45-10.72a6.94,6.94,0,0,1,6.51-3.53,6.67,6.67,0,0,1,6.11,4.07,22.77,22.77,0,0,1,1.5,8.42C724.55,177.32,724.14,177.86,723.32,177.86Z"/><path class="cls-1" d="M782.25,170.26l-.82-.14c-.41-5.84-.95-11.54-1.36-17.38,0-.27-.13-.27-.27-.27-.68,0-20.91,2.85-27,3.53-.13,3.53-.27,7.47-.27,11.14l8,.4v34.22c0,.27-.13.4-.54.54l-6.38.27c-.14,3.39-.14,7.47-.14,11.13,5.71,0,13.31-.13,19.28-.13h20.5c.27-3.67.27-7.47.27-11.14l-11.13-.4v-7.47c.14-3.8.41-8.15,2-11.4,2.58-4.89,4.61-7.34,7.06-9.37a5.62,5.62,0,0,1,3.94-1.22,41.69,41.69,0,0,1,8.55,1.35c2.58-2.3,6.38-13.3,6.38-19.68a31.34,31.34,0,0,0-9.78-1.77C793.79,152.47,790.66,154.24,782.25,170.26Z"/><path class="cls-1" d="M870.49,201.48c-.68,0-.68-.27-.68-1.08.14-5.84.28-18.6.28-27.56,0-11.54-10.32-20.37-20.78-20.37-12.89,0-23.08,5.43-32.85,13.31a85.67,85.67,0,0,0,7.19,9.77c5.3-3.8,12.49-7.6,17.11-7.6,6.11,0,8.55,3.94,8.15,10.73h-6.52c-21.59,0-30.55,12.89-30.55,20.5,0,8.55,10.46,15.75,17.65,15.75,5.16,0,11.54-1.91,19.69-6h.68a54.51,54.51,0,0,0,5.16,6c10.86,0,20.5-1.91,22.67-2.72.13-3.53,0-7.6,0-11.13ZM849,198.09a1.14,1.14,0,0,1-.27.81c-2,1.23-5.57,3-9.1,3-2.71,0-6.24-2-6.24-5.29,0-4.08,3.94-8,12.76-8a19.91,19.91,0,0,1,2.85.13Z"/><path class="cls-1" d="M935.8,153.83H920.32c-.14,3.53-.14,7.74-.27,11.54l4.75.27c.41,0,.54.27.54.68-1.36,5.84-2.3,10.32-3.39,15.07s-2.58,9.64-4.07,14.26h-1c-1.9-5.84-3.67-10.73-5.3-15.89-2.17-6.79-3.53-11.27-4.34-14.12l6.24-.27c.14-3.66.14-7.87.14-11.54H878.23c-.13,3.53-.27,7.74-.27,11.54l5.16.27c.27.14.68.27.68.54,2.17,5.71,5.29,14,8.55,22.68,3.94,9.91,7.2,17.92,11.41,28.37-2,5-5.84,9.1-10,13a55.67,55.67,0,0,1-9.78,7.06c0,3.53,11.82,11.4,16.3,11.4,3.25-1.9,6.92-7.19,10.45-12.76,7.2-11.27,16.43-33,20.09-41.55,4.08-10,9.51-24,11.41-28.91l4.89-.28c.13-3.66.27-7.87.27-11.4Z"/><path class="cls-2" d="M129.73,138.93c-13.11,33.88-.16,72.22,29.46,97.35-19.7-38.39-14.9-82.19,14-104.84,33.84-26.5,87.84-14,120.62,27.83A112.63,112.63,0,0,1,316.42,209c15.71-44-11.91-95-62.53-114.61C202.53,74.52,146.94,94.46,129.73,138.93Z"/><path class="cls-3" d="M230.38,231.2c-38.39,19.7-82.19,14.9-104.84-14-26.5-33.84-14-87.85,27.84-120.63A112.63,112.63,0,0,1,203.11,74c-44.05-15.72-95,11.9-114.61,62.53-19.88,51.36.06,106.94,44.53,124.15C166.91,273.77,205.25,260.82,230.38,231.2Z"/><path class="cls-4" d="M198.86,131.7c41.08,13.22,68.65,47.58,64.21,84.06-5.19,42.66-52.19,72-105,65.61A112.64,112.64,0,0,1,107,262.16c20,42.25,75.6,58.77,125.26,36.82,50.37-22.26,75.58-75.66,56.3-119.27C273.85,146.48,237.58,128.52,198.86,131.7Z"/><circle class="cls-1" cx="243.53" cy="54.77" r="24.04"/><circle class="cls-1" cx="64.71" cy="244.06" r="24.04"/><circle class="cls-1" cx="320.82" cy="254.85" r="24.04"/></g></svg>